<svg width="68" height="49" viewBox="0 0 68 49" fill="none" xmlns="http://www.w3.org/2000/svg">
<g clip-path="url(#clip0_12_12)">
<path d="M51.6349 7.80378C52.4968 7.7364 53.386 7.94795 54.1594 8.46664C55.9857 9.69126 56.4731 12.1648 55.2484 13.9912L37.5568 41.0294L63.947 40.9816C66.1455 40.9792 67.9304 42.7601 67.9327 44.9587C67.9351 47.1572 66.1534 48.9428 63.9556 48.9444L30.0923 49C28.6208 49.0016 27.2693 48.1914 26.5759 46.8939C25.8832 45.5964 25.9616 44.0224 26.7811 42.8009L48.6348 9.55572C49.3408 8.50268 50.462 7.89467 51.6349 7.80378Z" fill="#E9EBFB"/>
<path d="M16.2978 41.1954C15.436 41.2628 14.5467 41.0513 13.7733 40.5326C11.947 39.308 11.4596 36.8344 12.6843 35.0081L30.3759 7.97066L3.98572 8.01845C1.78641 8.0208 0.00235286 6.23988 2.32305e-06 4.04135C-0.00234821 1.84204 1.77936 0.0571986 3.9771 0.0556316L37.8412 2.26915e-06C39.3127 -0.00156475 40.6642 0.808586 41.3576 2.10608C42.0503 3.40357 41.9719 4.97765 41.1524 6.19914L19.2979 39.4435C18.5919 40.4966 17.4707 41.1046 16.2978 41.1954Z" fill="#E9EBFB"/>
<path d="M47.0199 4.67682L20.339 44.8897" stroke="#E9EBFB" stroke-width="3.13404" stroke-miterlimit="10" stroke-linecap="round"/>
</g>
<defs>
<clipPath id="clip0_12_12">
<rect width="67.9328" height="49" fill="white"/>
</clipPath>
</defs>
</svg>
