<svg width="42" height="9" viewBox="0 0 42 9" fill="none" xmlns="http://www.w3.org/2000/svg">
<path d="M3.817 8.099C3.16433 8.099 2.58133 7.97433 2.068 7.725C1.562 7.47567 1.166 7.12733 0.88 6.68C0.594 6.23267 0.451 5.723 0.451 5.151V3.127C0.451 2.555 0.590333 2.049 0.869 1.609C1.155 1.16167 1.54733 0.817 2.046 0.575C2.54467 0.325666 3.11667 0.200999 3.762 0.200999C4.40733 0.200999 4.97933 0.299999 5.478 0.498C5.984 0.688666 6.37633 0.96 6.655 1.312C6.93367 1.65667 7.073 2.05267 7.073 2.5C7.073 2.77133 6.98133 2.98767 6.798 3.149C6.622 3.303 6.38367 3.38 6.083 3.38C5.93633 3.38 5.775 3.358 5.599 3.314C5.61367 3.138 5.621 2.96567 5.621 2.797C5.621 2.40833 5.44867 2.093 5.104 1.851C4.75933 1.609 4.312 1.488 3.762 1.488C3.21933 1.488 2.77567 1.642 2.431 1.95C2.09367 2.25067 1.925 2.643 1.925 3.127V5.151C1.925 5.64233 2.101 6.042 2.453 6.35C2.805 6.658 3.25967 6.812 3.817 6.812C4.367 6.812 4.81433 6.691 5.159 6.449C5.50367 6.207 5.676 5.89533 5.676 5.514C5.676 5.338 5.66867 5.16933 5.654 5.008C5.83733 4.97133 5.99133 4.953 6.116 4.953C6.424 4.953 6.66967 5.03367 6.853 5.195C7.03633 5.35633 7.128 5.57633 7.128 5.855C7.128 6.28767 6.98867 6.67633 6.71 7.021C6.43133 7.35833 6.039 7.62233 5.533 7.813C5.03433 8.00367 4.46233 8.099 3.817 8.099ZM10.2097 8.099C9.73305 8.099 9.30039 8.01467 8.91172 7.846C8.53039 7.67 8.22972 7.428 8.00972 7.12C7.78972 6.812 7.67972 6.46367 7.67972 6.075V4.524C7.67972 4.128 7.78605 3.76867 7.99872 3.446C8.21872 3.12333 8.51939 2.87033 8.90072 2.687C9.28205 2.49633 9.71839 2.401 10.2097 2.401C10.7011 2.401 11.1374 2.49633 11.5187 2.687C11.9074 2.87033 12.2081 3.12333 12.4207 3.446C12.6407 3.76867 12.7507 4.128 12.7507 4.524V6.075C12.7507 6.46367 12.6371 6.812 12.4097 7.12C12.1897 7.428 11.8854 7.67 11.4967 7.846C11.1154 8.01467 10.6864 8.099 10.2097 8.099ZM10.2097 6.922C10.5764 6.922 10.8624 6.83767 11.0677 6.669C11.2804 6.50033 11.3867 6.273 11.3867 5.987V4.59C11.3867 4.28933 11.2804 4.04733 11.0677 3.864C10.8624 3.67333 10.5764 3.578 10.2097 3.578C9.85039 3.578 9.56439 3.67333 9.35172 3.864C9.13905 4.04733 9.03272 4.28933 9.03272 4.59V5.987C9.03272 6.273 9.13905 6.50033 9.35172 6.669C9.56439 6.83767 9.85039 6.922 10.2097 6.922ZM13.6148 3.457C13.6148 3.11967 13.7212 2.85933 13.9338 2.676C14.1538 2.49267 14.4838 2.401 14.9238 2.401V3.061C14.8358 3.16367 14.7478 3.281 14.6598 3.413L14.7258 3.457C14.9458 3.127 15.2282 2.87033 15.5728 2.687C15.9175 2.49633 16.2988 2.401 16.7168 2.401C17.0908 2.401 17.4208 2.48533 17.7068 2.654C17.9928 2.82267 18.2128 3.05367 18.3668 3.347C18.5282 3.64033 18.6088 3.97033 18.6088 4.337V7.263C18.6088 7.55633 18.4952 7.769 18.2678 7.901C18.0405 8.033 17.6958 8.099 17.2338 8.099V4.535C17.2338 4.25633 17.1495 4.029 16.9808 3.853C16.8195 3.677 16.5812 3.589 16.2658 3.589C15.8918 3.589 15.5838 3.70633 15.3418 3.941C15.0998 4.16833 14.9788 4.45433 14.9788 4.799V7.263C14.9788 7.55633 14.8688 7.769 14.6488 7.901C14.4288 8.033 14.0842 8.099 13.6148 8.099V3.457ZM19.8345 3.457C19.8345 3.11967 19.9409 2.85933 20.1535 2.676C20.3735 2.49267 20.7035 2.401 21.1435 2.401V3.061C21.0555 3.16367 20.9675 3.281 20.8795 3.413L20.9455 3.457C21.1655 3.127 21.4479 2.87033 21.7925 2.687C22.1372 2.49633 22.5185 2.401 22.9365 2.401C23.3105 2.401 23.6405 2.48533 23.9265 2.654C24.2125 2.82267 24.4325 3.05367 24.5865 3.347C24.7479 3.64033 24.8285 3.97033 24.8285 4.337V7.263C24.8285 7.55633 24.7149 7.769 24.4875 7.901C24.2602 8.033 23.9155 8.099 23.4535 8.099V4.535C23.4535 4.25633 23.3692 4.029 23.2005 3.853C23.0392 3.677 22.8009 3.589 22.4855 3.589C22.1115 3.589 21.8035 3.70633 21.5615 3.941C21.3195 4.16833 21.1985 4.45433 21.1985 4.799V7.263C21.1985 7.55633 21.0885 7.769 20.8685 7.901C20.6485 8.033 20.3039 8.099 19.8345 8.099V3.457ZM28.4523 8.099C27.9976 8.099 27.5833 8.011 27.2093 7.835C26.8353 7.65167 26.5383 7.406 26.3183 7.098C26.0983 6.78267 25.9883 6.43067 25.9883 6.042V4.579C25.9883 4.16833 26.1019 3.798 26.3293 3.468C26.5566 3.138 26.8573 2.87767 27.2313 2.687C27.6126 2.49633 28.0233 2.401 28.4633 2.401C28.8959 2.401 29.2919 2.49267 29.6513 2.676C30.0179 2.852 30.3076 3.10133 30.5203 3.424C30.7329 3.73933 30.8393 4.10233 30.8393 4.513V5.129C30.8393 5.29033 30.7769 5.426 30.6523 5.536C30.5349 5.646 30.3846 5.701 30.2013 5.701H27.3193V5.943C27.3193 6.25833 27.4146 6.515 27.6053 6.713C27.7959 6.911 28.0819 7.01 28.4633 7.01C28.8299 7.01 29.1013 6.92933 29.2773 6.768C29.4606 6.60667 29.5523 6.39767 29.5523 6.141C29.6843 6.12633 29.7759 6.119 29.8273 6.119C30.0986 6.119 30.3113 6.18133 30.4653 6.306C30.6193 6.42333 30.6963 6.592 30.6963 6.812C30.6963 7.02467 30.5973 7.23 30.3993 7.428C30.2013 7.626 29.9299 7.78733 29.5853 7.912C29.2406 8.03667 28.8629 8.099 28.4523 8.099ZM29.5963 4.722V4.513C29.5963 4.205 29.4899 3.95567 29.2773 3.765C29.0646 3.57433 28.7896 3.479 28.4523 3.479C28.1149 3.479 27.8399 3.57433 27.6273 3.765C27.4219 3.94833 27.3193 4.19767 27.3193 4.513V4.722H29.5963ZM34.263 8.099C33.7864 8.099 33.3647 8.01467 32.998 7.846C32.6314 7.67 32.3454 7.428 32.14 7.12C31.9347 6.812 31.832 6.46367 31.832 6.075V4.535C31.832 4.117 31.9347 3.74667 32.14 3.424C32.3454 3.10133 32.6314 2.852 32.998 2.676C33.3647 2.49267 33.7827 2.401 34.252 2.401C34.692 2.401 35.0807 2.46333 35.418 2.588C35.7627 2.71267 36.0304 2.88867 36.221 3.116C36.4117 3.336 36.507 3.59267 36.507 3.886C36.507 4.11333 36.419 4.29667 36.243 4.436C36.067 4.57533 35.836 4.645 35.55 4.645C35.4694 4.645 35.4107 4.64133 35.374 4.634C35.374 4.31867 35.2714 4.06567 35.066 3.875C34.868 3.68433 34.6077 3.589 34.285 3.589C33.9624 3.589 33.6984 3.68067 33.493 3.864C33.295 4.04733 33.196 4.28933 33.196 4.59V5.976C33.196 6.25467 33.2987 6.482 33.504 6.658C33.7094 6.82667 33.9734 6.911 34.296 6.911C34.6187 6.911 34.8827 6.81567 35.088 6.625C35.2934 6.427 35.396 6.17767 35.396 5.877C35.44 5.86967 35.5024 5.866 35.583 5.866C35.869 5.866 36.1 5.932 36.276 6.064C36.452 6.196 36.54 6.37567 36.54 6.603C36.54 6.89633 36.441 7.15667 36.243 7.384C36.0524 7.604 35.7847 7.78 35.44 7.912C35.0954 8.03667 34.703 8.099 34.263 8.099ZM39.8441 8.099C39.2501 8.099 38.8101 7.92667 38.5241 7.582C38.2381 7.23733 38.0951 6.79367 38.0951 6.251V3.523H36.9621C36.9621 3.17833 37.0281 2.92167 37.1601 2.753C37.2921 2.58433 37.4681 2.5 37.6881 2.5H38.1171V1.587C38.1171 1.28633 38.2271 1.07367 38.4471 0.949C38.6671 0.817 39.0008 0.751 39.4481 0.751V2.5H40.9111C40.9111 2.86667 40.8415 3.13067 40.7021 3.292C40.5628 3.446 40.3391 3.523 40.0311 3.523H39.4701V6.196C39.4701 6.45267 39.5178 6.636 39.6131 6.746C39.7158 6.856 39.8881 6.911 40.1301 6.911C40.3868 6.911 40.6435 6.84133 40.9001 6.702C40.9735 6.768 41.0321 6.85233 41.0761 6.955C41.1201 7.05033 41.1421 7.14933 41.1421 7.252C41.1421 7.472 41.0285 7.67 40.8011 7.846C40.5738 8.01467 40.2548 8.099 39.8441 8.099Z" fill="white"/>
</svg>
